<?xml version="1.0" encoding="UTF-8"?>
<svg id="Layer_1" xmlns="http://www.w3.org/2000/svg" version="1.1" viewBox="0 0 704 704">
  <!-- Generator: Adobe Illustrator 29.8.3, SVG Export Plug-In . SVG Version: 2.1.1 Build 3)  -->
  <defs>
    <style>
      .st0 {
        fill: #fff;
      }
    </style>
  </defs>
  <path class="st0" d="M584.62,90.39c220.9,196.81,111.92,562.38-179.29,607.45C142.57,738.5-67.91,481.23,23.53,231.03,107.56,1.08,400.84-73.36,584.62,90.39ZM473.58,170.42c-29.3-25.65-87.8-72.36-128.07-68.41-8.31.81-19.44,5.45-27.19,8.81-67.87,29.44-170.42,132.53-203.2,198.8-14.18,28.67-16.52,46.47-3.62,76.38,28.61,66.33,128.81,165.52,192.48,199.52,40.03,21.38,59.44,20.73,99.04-1,62.79-34.45,146.29-118.17,181.5-180.5,25.23-44.66,22.15-67.35-3.51-110.53-26-43.76-69.17-89.58-107.43-123.07Z"/>
  <path class="st0" d="M484.62,405.63c-26.33,28.66-112.81,78.01-150.63,86.86-12.36,2.89-20.94,3.23-31-4.97-30.78-25.1-74.04-104.01-87.01-141.99-5.32-15.6-10.95-29.24.51-43.53,23.9-29.81,105.34-74.52,141.99-87.01,16.09-5.48,29.62-11.07,44.04.99,29.61,24.75,73.12,102.15,85.95,139.05,7.41,21.3,12.55,32.74-3.86,50.61Z"/>
</svg>